<svg xmlns="http://www.w3.org/2000/svg" xmlns:xlink="http://www.w3.org/1999/xlink" contentStyleType="text/css" data-diagram-type="ACTIVITY" height="1231px" preserveAspectRatio="none" style="width:693px;height:1231px;background:#FFFFFF;" version="1.1" viewBox="0 0 693 1231" width="693px" zoomAndPan="magnify"><title>Audio-MNIST Flowchart &#128257;</title><defs/><g><text fill="#000000" font-family="sans-serif" font-size="14" font-weight="bold" lengthAdjust="spacing" textLength="197.9141" x="246.5198" y="32.9951">Audio-MNIST Flowchart &#128257;</text><rect fill="none" height="20.9531" style="stroke:none;stroke-width:1;" width="660.9536" x="15" y="50.042"/><polygon fill="#D5E8D4" points="30,75.9951,119.0293,75.9951,126.0293,98.292,133.0293,98.292,133.0293,166.2607,30,166.2607,30,75.9951" style="stroke:#000000;stroke-width:1.5;"/><line style="stroke:#000000;stroke-width:1.5;" x1="30" x2="126.0293" y1="98.292" y2="98.292"/><text fill="#000000" font-family="sans-serif" font-size="14" lengthAdjust="spacing" textLength="83.0293" x="34" y="90.9902">audio-mnist</text><rect fill="#F1F1F1" height="33.9688" rx="12.5" ry="12.5" style="stroke:#181818;stroke-width:0.5;" width="60.3301" x="51.3496" y="112.292"/><text fill="#000000" font-family="sans-serif" font-size="12" lengthAdjust="spacing" textLength="40.3301" x="61.3496" y="133.4307">Start &#9989;</text><polygon fill="#D5E8D4" points="30,1129.0732,119.0293,1129.0732,126.0293,1151.3701,133.0293,1151.3701,133.0293,1219.3389,30,1219.3389,30,1129.0732" style="stroke:#000000;stroke-width:1.5;"/><line style="stroke:#000000;stroke-width:1.5;" x1="30" x2="126.0293" y1="1151.3701" y2="1151.3701"/><text fill="#000000" font-family="sans-serif" font-size="14" lengthAdjust="spacing" textLength="83.0293" x="34" y="1144.0684">audio-mnist</text><rect fill="#F1F1F1" height="33.9688" rx="12.5" ry="12.5" style="stroke:#181818;stroke-width:0.5;" width="58.6191" x="52.2051" y="1165.3701"/><text fill="#000000" font-family="sans-serif" font-size="12" lengthAdjust="spacing" textLength="38.6191" x="62.2051" y="1186.5088">End &#128721;</text><line style="stroke:#000000;stroke-width:1.5;" x1="15" x2="15" y1="50.042" y2="1219.3389"/><polygon fill="#DAE8FC" points="163.0293,176.2607,267.624,176.2607,274.624,198.5576,281.624,198.5576,281.624,404.4639,163.0293,404.4639,163.0293,176.2607" style="stroke:#000000;stroke-width:1.5;"/><line style="stroke:#000000;stroke-width:1.5;" x1="163.0293" x2="274.624" y1="198.5576" y2="198.5576"/><text fill="#000000" font-family="sans-serif" font-size="14" lengthAdjust="spacing" textLength="98.5947" x="167.0293" y="191.2559">audiomnist.sh</text><rect fill="#F1F1F1" height="33.9688" rx="12.5" ry="12.5" style="stroke:#181818;stroke-width:0.5;" width="88.0684" x="178.2925" y="212.5576"/><text fill="#000000" font-family="sans-serif" font-size="12" lengthAdjust="spacing" textLength="68.0684" x="188.2925" y="233.6963">Set paths &#128193;</text><rect fill="#F1F1F1" height="33.9688" rx="12.5" ry="12.5" style="stroke:#181818;stroke-width:0.5;" width="82.4375" x="181.1079" y="281.5264"/><text fill="#000000" font-family="sans-serif" font-size="12" lengthAdjust="spacing" textLength="62.4375" x="191.1079" y="302.665">Start log &#128220;</text><rect fill="#F1F1F1" height="33.9688" rx="12.5" ry="12.5" style="stroke:#181818;stroke-width:0.5;" width="80" x="182.3267" y="350.4951"/><text fill="#000000" font-family="sans-serif" font-size="12" lengthAdjust="spacing" textLength="60" x="192.3267" y="371.6338">Run GUI &#128421;&#65039;</text><polygon fill="#DAE8FC" points="163.0293,1028.8076,267.624,1028.8076,274.624,1051.1045,281.624,1051.1045,281.624,1119.0732,163.0293,1119.0732,163.0293,1028.8076" style="stroke:#000000;stroke-width:1.5;"/><line style="stroke:#000000;stroke-width:1.5;" x1="163.0293" x2="274.624" y1="1051.1045" y2="1051.1045"/><text fill="#000000" font-family="sans-serif" font-size="14" lengthAdjust="spacing" textLength="98.5947" x="167.0293" y="1043.8027">audiomnist.sh</text><rect fill="#F1F1F1" height="33.9688" rx="12.5" ry="12.5" style="stroke:#181818;stroke-width:0.5;" width="88.1563" x="178.2485" y="1065.1045"/><text fill="#000000" font-family="sans-serif" font-size="12" lengthAdjust="spacing" textLength="68.1563" x="188.2485" y="1086.2432">Finish log &#128220;</text><line style="stroke:#000000;stroke-width:1.5;" x1="148.0293" x2="148.0293" y1="50.042" y2="1219.3389"/><polygon fill="#FFF2CC" points="311.624,414.4639,360.8955,414.4639,367.8955,436.7607,456.1963,436.7607,456.1963,504.7295,311.624,504.7295,311.624,414.4639" style="stroke:#000000;stroke-width:1.5;"/><line style="stroke:#000000;stroke-width:1.5;" x1="311.624" x2="367.8955" y1="436.7607" y2="436.7607"/><text fill="#000000" font-family="sans-serif" font-size="14" lengthAdjust="spacing" textLength="43.2715" x="315.624" y="429.459">gui.py</text><rect fill="#F1F1F1" height="33.9688" rx="12.5" ry="12.5" style="stroke:#181818;stroke-width:0.5;" width="124.5723" x="321.624" y="450.7607"/><text fill="#000000" font-family="sans-serif" font-size="12" lengthAdjust="spacing" textLength="104.5723" x="331.624" y="471.8994">Run application &#127939;</text><line style="stroke:#000000;stroke-width:1.5;" x1="296.624" x2="296.624" y1="50.042" y2="1219.3389"/><polygon fill="#F8CECC" points="486.1963,514.7295,591.7959,514.7295,598.7959,537.0264,659.0928,537.0264,659.0928,1018.8076,486.1963,1018.8076,486.1963,514.7295" style="stroke:#000000;stroke-width:1.5;"/><line style="stroke:#000000;stroke-width:1.5;" x1="486.1963" x2="598.7959" y1="537.0264" y2="537.0264"/><text fill="#000000" font-family="sans-serif" font-size="14" lengthAdjust="spacing" textLength="99.5996" x="490.1963" y="529.7246">audiomnist.py</text><rect fill="#F1F1F1" height="33.9688" rx="12.5" ry="12.5" style="stroke:#181818;stroke-width:0.5;" width="133.6602" x="505.8145" y="551.0264"/><text fill="#000000" font-family="sans-serif" font-size="12" lengthAdjust="spacing" textLength="113.6602" x="515.8145" y="572.165">Data preparation &#129529;</text><rect fill="#F1F1F1" height="33.9688" rx="12.5" ry="12.5" style="stroke:#181818;stroke-width:0.5;" width="152.8965" x="496.1963" y="619.9951"/><text fill="#000000" font-family="sans-serif" font-size="12" lengthAdjust="spacing" textLength="132.8965" x="506.1963" y="641.1338">Feature engineering &#129516;</text><rect fill="#F1F1F1" height="33.9688" rx="12.5" ry="12.5" style="stroke:#181818;stroke-width:0.5;" width="111.9863" x="516.6514" y="688.9639"/><text fill="#000000" font-family="sans-serif" font-size="12" lengthAdjust="spacing" textLength="91.9863" x="526.6514" y="710.1025">Data splitting &#128256;</text><rect fill="#F1F1F1" height="33.9688" rx="12.5" ry="12.5" style="stroke:#181818;stroke-width:0.5;" width="109.332" x="517.9785" y="757.9326"/><text fill="#000000" font-family="sans-serif" font-size="12" lengthAdjust="spacing" textLength="89.332" x="527.9785" y="779.0713">Model tuning &#128295;</text><rect fill="#F1F1F1" height="33.9688" rx="12.5" ry="12.5" style="stroke:#181818;stroke-width:0.5;" width="117.3477" x="513.9707" y="826.9014"/><text fill="#000000" font-family="sans-serif" font-size="12" lengthAdjust="spacing" textLength="97.3477" x="523.9707" y="848.04">Model training &#129504;</text><rect fill="#F1F1F1" height="33.9688" rx="12.5" ry="12.5" style="stroke:#181818;stroke-width:0.5;" width="131.3281" x="506.9805" y="895.8701"/><text fill="#000000" font-family="sans-serif" font-size="12" lengthAdjust="spacing" textLength="111.3281" x="516.9805" y="917.0088">Model prediction &#127919;</text><rect fill="#F1F1F1" height="33.9688" rx="12.5" ry="12.5" style="stroke:#181818;stroke-width:0.5;" width="132.248" x="506.5205" y="964.8389"/><text fill="#000000" font-family="sans-serif" font-size="12" lengthAdjust="spacing" textLength="112.248" x="516.5205" y="985.9775">Save to postgres &#128738;&#65039;</text><line style="stroke:#000000;stroke-width:1.5;" x1="471.1963" x2="471.1963" y1="50.042" y2="1219.3389"/><line style="stroke:#000000;stroke-width:1.5;" x1="674.0928" x2="674.0928" y1="50.042" y2="1219.3389"/><line style="stroke:#181818;stroke-width:1;" x1="222.3267" x2="222.3267" y1="246.5264" y2="281.5264"/><polygon fill="#181818" points="218.3267,271.5264,222.3267,281.5264,226.3267,271.5264,222.3267,275.5264" style="stroke:#181818;stroke-width:1;"/><line style="stroke:#181818;stroke-width:1;" x1="222.3267" x2="222.3267" y1="315.4951" y2="350.4951"/><polygon fill="#181818" points="218.3267,340.4951,222.3267,350.4951,226.3267,340.4951,222.3267,344.4951" style="stroke:#181818;stroke-width:1;"/><line style="stroke:#181818;stroke-width:1;" x1="572.6445" x2="572.6445" y1="584.9951" y2="619.9951"/><polygon fill="#181818" points="568.6445,609.9951,572.6445,619.9951,576.6445,609.9951,572.6445,613.9951" style="stroke:#181818;stroke-width:1;"/><line style="stroke:#181818;stroke-width:1;" x1="572.6445" x2="572.6445" y1="653.9639" y2="688.9639"/><polygon fill="#181818" points="568.6445,678.9639,572.6445,688.9639,576.6445,678.9639,572.6445,682.9639" style="stroke:#181818;stroke-width:1;"/><line style="stroke:#181818;stroke-width:1;" x1="572.6445" x2="572.6445" y1="722.9326" y2="757.9326"/><polygon fill="#181818" points="568.6445,747.9326,572.6445,757.9326,576.6445,747.9326,572.6445,751.9326" style="stroke:#181818;stroke-width:1;"/><line style="stroke:#181818;stroke-width:1;" x1="572.6445" x2="572.6445" y1="791.9014" y2="826.9014"/><polygon fill="#181818" points="568.6445,816.9014,572.6445,826.9014,576.6445,816.9014,572.6445,820.9014" style="stroke:#181818;stroke-width:1;"/><line style="stroke:#181818;stroke-width:1;" x1="572.6445" x2="572.6445" y1="860.8701" y2="895.8701"/><polygon fill="#181818" points="568.6445,885.8701,572.6445,895.8701,576.6445,885.8701,572.6445,889.8701" style="stroke:#181818;stroke-width:1;"/><line style="stroke:#181818;stroke-width:1;" x1="572.6445" x2="572.6445" y1="929.8389" y2="964.8389"/><polygon fill="#181818" points="568.6445,954.8389,572.6445,964.8389,576.6445,954.8389,572.6445,958.8389" style="stroke:#181818;stroke-width:1;"/><line style="stroke:#181818;stroke-width:1;" x1="81.5146" x2="81.5146" y1="146.2607" y2="171.2607"/><line style="stroke:#181818;stroke-width:1;" x1="81.5146" x2="222.3267" y1="171.2607" y2="171.2607"/><line style="stroke:#181818;stroke-width:1;" x1="222.3267" x2="222.3267" y1="171.2607" y2="212.5576"/><polygon fill="#181818" points="218.3267,202.5576,222.3267,212.5576,226.3267,202.5576,222.3267,206.5576" style="stroke:#181818;stroke-width:1;"/><line style="stroke:#181818;stroke-width:1;" x1="222.3267" x2="222.3267" y1="384.4639" y2="409.4639"/><line style="stroke:#181818;stroke-width:1;" x1="222.3267" x2="383.9102" y1="409.4639" y2="409.4639"/><line style="stroke:#181818;stroke-width:1;" x1="383.9102" x2="383.9102" y1="409.4639" y2="450.7607"/><polygon fill="#181818" points="379.9102,440.7607,383.9102,450.7607,387.9102,440.7607,383.9102,444.7607" style="stroke:#181818;stroke-width:1;"/><line style="stroke:#181818;stroke-width:1;" x1="383.9102" x2="383.9102" y1="484.7295" y2="509.7295"/><line style="stroke:#181818;stroke-width:1;" x1="383.9102" x2="572.6445" y1="509.7295" y2="509.7295"/><line style="stroke:#181818;stroke-width:1;" x1="572.6445" x2="572.6445" y1="509.7295" y2="551.0264"/><polygon fill="#181818" points="568.6445,541.0264,572.6445,551.0264,576.6445,541.0264,572.6445,545.0264" style="stroke:#181818;stroke-width:1;"/><line style="stroke:#181818;stroke-width:1;" x1="572.6445" x2="572.6445" y1="998.8076" y2="1023.8076"/><line style="stroke:#181818;stroke-width:1;" x1="572.6445" x2="222.3267" y1="1023.8076" y2="1023.8076"/><line style="stroke:#181818;stroke-width:1;" x1="222.3267" x2="222.3267" y1="1023.8076" y2="1065.1045"/><polygon fill="#181818" points="218.3267,1055.1045,222.3267,1065.1045,226.3267,1055.1045,222.3267,1059.1045" style="stroke:#181818;stroke-width:1;"/><line style="stroke:#181818;stroke-width:1;" x1="222.3267" x2="222.3267" y1="1099.0732" y2="1124.0732"/><line style="stroke:#181818;stroke-width:1;" x1="222.3267" x2="81.5146" y1="1124.0732" y2="1124.0732"/><line style="stroke:#181818;stroke-width:1;" x1="81.5146" x2="81.5146" y1="1124.0732" y2="1165.3701"/><polygon fill="#181818" points="77.5146,1155.3701,81.5146,1165.3701,85.5146,1155.3701,81.5146,1159.3701" style="stroke:#181818;stroke-width:1;"/><text fill="#000000" font-family="sans-serif" font-size="18" lengthAdjust="spacing" textLength="82.1689" x="40.4302" y="66.75">U S E R &#129001;</text><text fill="#000000" font-family="sans-serif" font-size="18" lengthAdjust="spacing" textLength="67.1133" x="188.77" y="66.75">R U N &#128998;</text><text fill="#000000" font-family="sans-serif" font-size="18" lengthAdjust="spacing" textLength="60.3984" x="353.7109" y="66.75">G U I &#129000;</text><text fill="#000000" font-family="sans-serif" font-size="18" lengthAdjust="spacing" textLength="61.9893" x="541.6499" y="66.75">A P P &#128997;</text><!--SRC=[dP91IiD058RtESMZhkr258fTbJPJkcYHrXvWI8PaCCuCanT5RC4YRYrYSMEX8jGe26xrEbv0Z-1CajOWRfHPpGVV_x-y2NAC63GIdylDRgyps0SIoMClf1hXSp6RECve20DmeM-kYwUHewXtG0C65PevXuB7M86DrevRQst3gGEmEq1hlyylwixO-7qOGi_Q3p_jJAx6eVKRReqq2vyXA8fXRAJhIVqxCfA1HVCCzHC1xM77W9lbn-iqxsgRBeiMZwMk8E5LTM9A225RpQB4wbIfY7iKkHJ6cPxd6GtOCyTaB7-VDu-gDTrLL8iY1QMPedgLbRvbCn96CT4Cc0YuO4npOJyWVQwljTXCW9ZpsLd6kz9d4M0Y2fgMgQQyuEbTYPjsdtj5-ULBlZDwn00bA1bZe9dTvktzUbD_VXLYYkEmz0RZ__mRhl3j75T6_m80]--></g></svg>